<?xml version="1.0" encoding="utf-8"?>
<!-- Generator: Adobe Illustrator 19.0.0, SVG Export Plug-In . SVG Version: 6.00 Build 0)  -->
<svg version="1.1" id="Capa_1" xmlns="http://www.w3.org/2000/svg" xmlns:xlink="http://www.w3.org/1999/xlink" x="0px" y="0px"
	 viewBox="0 0 64 64" style="enable-background:new 0 0 64 64;" xml:space="preserve">
<style type="text/css">
	.st0{fill:#0000FF;}
</style>
<g id="XMLID_1_">
	<path id="XMLID_21_" class="st0" d="M56.4,34.1c0,11.9-8.8,22.2-20.5,24.1C22.8,60.2,10.5,51.6,8,38.5c-1.8-9.7,2.5-19.8,10.9-25
		c2-1.3,4.6-0.8,5.8,1.1c1.3,2,0.8,4.5-1.3,5.9c-4.9,3.3-7.5,7.9-7.5,13.8c0,7.9,6.1,14.7,13.9,15.7c8.8,1.1,16.9-5,18-13.7
		c0.8-6.7-1.7-11.9-7.3-15.7c-2.7-1.8-2.7-5.6,0.2-7.2c1.4-0.8,2.9-0.8,4.2,0.1c6.4,4.1,10.2,9.9,11.2,17.5
		C56.3,32,56.3,33,56.4,34.1z"/>
	<path id="XMLID_20_" class="st0" d="M27.8,19.8c0-3.4,0-6.8,0-10.2c0-2.1,1.5-3.7,3.6-4c2.3-0.2,4.3,1.1,4.7,3.2
		c0.1,0.3,0.1,0.6,0.1,0.9c0,6.8,0,13.6,0,20.4c0,2.4-1.8,4.1-4.2,4.1c-2.3,0-4.1-1.7-4.1-4.1C27.8,26.6,27.8,23.2,27.8,19.8z"/>
</g>
</svg>
